M48
; DRILL file {KiCad 5.1.9-73d0e3b20d~88~ubuntu20.04.1} date Thu Mar  4 15:56:14 2021
; FORMAT={-:-/ absolute / metric / decimal}
; #@! TF.CreationDate,2021-03-04T15:56:14+01:00
; #@! TF.GenerationSoftware,Kicad,Pcbnew,5.1.9-73d0e3b20d~88~ubuntu20.04.1
FMAT,2
METRIC
T1C0.800
T2C0.900
T3C0.950
T4C1.000
T5C1.100
T6C2.300
T7C4.300
%
G90
G05
T1
X125.08Y79.2
X125.08Y85.59
X125.08Y88.09
X127.62Y85.59
X127.62Y88.09
X127.62Y93.37
X127.62Y98.25
X129.525Y111.585
X129.525Y119.205
X131.43Y79.2
X131.43Y114.125
X131.43Y121.745
X133.97Y56.34
X133.97Y58.88
X133.97Y61.42
X133.97Y63.96
X133.97Y66.5
X133.97Y69.04
X133.97Y71.58
X133.97Y86.185
X133.97Y88.725
X133.97Y91.265
X133.97Y93.805
X133.97Y96.345
X133.97Y98.885
X133.97Y101.425
X133.97Y103.965
X133.97Y106.505
X133.97Y109.045
X133.97Y111.585
X133.97Y114.125
X133.97Y116.665
X133.97Y119.205
X141.59Y56.34
X141.59Y58.88
X141.59Y61.42
X141.59Y63.96
X141.59Y66.5
X141.59Y69.04
X141.59Y71.58
X141.59Y86.185
X141.59Y88.725
X141.59Y91.265
X141.59Y93.805
X141.59Y96.345
X141.59Y98.885
X141.59Y101.425
X141.59Y103.965
X141.59Y106.505
X141.59Y109.045
X141.59Y111.585
X141.59Y114.125
X141.59Y116.665
X141.59Y119.205
X144.765Y107.775
X144.765Y119.205
X145.4Y73.485
X145.4Y83.645
X146.67Y86.185
X146.67Y100.155
X146.67Y103.965
X146.67Y110.315
X146.67Y115.395
X147.94Y66.54
X147.94Y69.04
X148.575Y116.665
X148.575Y126.825
X151.75Y86.185
X151.75Y96.345
X151.75Y103.965
X153.655Y77.295
X153.655Y79.835
X154.925Y82.375
X154.925Y86.185
X154.925Y88.725
X154.925Y91.265
X154.925Y93.805
X154.925Y96.345
X154.925Y98.885
X154.925Y101.425
X154.925Y103.965
X154.925Y107.775
X154.925Y124.92
X157.465Y112.22
X157.465Y121.11
X162.545Y82.375
X162.545Y86.185
X162.545Y88.725
X162.545Y91.265
X162.545Y93.805
X162.545Y96.345
X162.545Y98.885
X162.545Y101.425
X162.545Y103.965
X162.545Y119.84
X162.545Y126.19
X164.45Y77.295
X164.45Y79.835
X173.34Y76.66
X175.88Y65.865
X175.88Y73.485
X178.42Y65.865
X178.42Y73.485
X180.96Y65.865
X180.96Y73.485
X183.5Y65.865
X183.5Y73.485
X186.04Y65.865
X186.04Y73.485
X188.58Y65.865
X188.58Y73.485
X188.58Y76.66
X191.12Y65.865
X191.12Y73.485
X193.66Y65.865
X193.66Y73.485
X194.93Y77.93
X194.93Y88.09
T2
X194.93Y94.44
X194.93Y96.98
X194.93Y109.68
X194.93Y112.22
T3
X158.735Y60.055
X158.735Y62.055
X161.235Y60.055
X161.235Y62.055
T4
X123.175Y107.775
X123.175Y110.315
X123.175Y112.855
X125.715Y107.775
X125.715Y110.315
X125.715Y112.855
X170.8Y86.82
X170.8Y89.36
X170.8Y91.9
X170.8Y94.44
X170.8Y96.98
X170.8Y99.52
X170.8Y102.06
X170.8Y104.6
X170.8Y107.14
X170.8Y109.68
X170.8Y112.22
X170.8Y114.76
X170.8Y117.3
X170.8Y119.84
X186.04Y86.82
X186.04Y89.36
X186.04Y91.9
X186.04Y94.44
X186.04Y96.98
X186.04Y99.52
X186.04Y102.06
X186.04Y104.6
X186.04Y107.14
X186.04Y109.68
X186.04Y112.22
X186.04Y114.76
X186.04Y117.3
X186.04Y119.84
T5
X134.605Y76.605
X134.605Y81.105
X141.105Y76.605
X141.105Y81.105
T6
X153.985Y57.195
X165.985Y57.195
T7
X125.0Y55.0
X125.0Y125.0
X195.0Y55.0
X195.0Y125.0
T0
M30
